PathFileType	4	(X/Y/Z)	C:\Users\dbl\Desktop\LZH\BX\Trimmed_Trimmed_Trimmed_Trimmed_bx_n_5_1801.trc
DataRate	CameraRate	NumFrames	NumMarkers	Units	OrigDataRate	OrigDataStartFrame	OrigNumFrames
50.00	50.00	       4	43	mm	50.00	73	       290
Frame#	Time	Top.Head			R.Acromium			L.Acromium			Sternum			R.ASIS			L.ASIS			V.Sacral			R.Thigh.Upper			R.Thigh.Front			R.Thigh.Rear			R.Knee.Lat			R.Knee.Med			R.Shank.Upper			R.Shank.Front			R.Shank.Rear			R.Ankle.Lat			R.Midfoot.Lat			R.Toe.Lat			R.Toe.Tip			R.Toe.Med			R.Ankle.Med			R.Midfoot.Sup			R.Heel			L.Thigh.Upper			L.Thigh.Front			L.Thigh.Rear			L.Knee.Lat			L.Knee.Med			L.Shank.Upper			L.Shank.Front			L.Shank.Rear			L.Ankle.Lat			L.Midfoot.Lat			L.Toe.Lat			L.Toe.Tip			L.Toe.Med			L.Ankle.Med			L.Midfoot.Sup			L.Heel			origin1 front left			origin2 front right			origin 3 back right			origin 4 back leftt			
		X1	Y1	Z1	X2	Y2	Z2	X3	Y3	Z3	X4	Y4	Z4	X5	Y5	Z5	X6	Y6	Z6	X7	Y7	Z7	X8	Y8	Z8	X9	Y9	Z9	X10	Y10	Z10	X11	Y11	Z11	X12	Y12	Z12	X13	Y13	Z13	X14	Y14	Z14	X15	Y15	Z15	X16	Y16	Z16	X17	Y17	Z17	X18	Y18	Z18	X19	Y19	Z19	X20	Y20	Z20	X21	Y21	Z21	X22	Y22	Z22	X23	Y23	Z23	X24	Y24	Z24	X25	Y25	Z25	X26	Y26	Z26	X27	Y27	Z27	X28	Y28	Z28	X29	Y29	Z29	X30	Y30	Z30	X31	Y31	Z31	X32	Y32	Z32	X33	Y33	Z33	X34	Y34	Z34	X35	Y35	Z35	X36	Y36	Z36	X37	Y37	Z37	X38	Y38	Z38	X39	Y39	Z39	X40	Y40	Z40	X41	Y41	Z41	X42	Y42	Z42	X43	Y43	Z43	

73	1.440	-571.82678	265.02881	1837.17517	-621.18665	84.69577	1541.74988	-623.07501	441.72150	1530.31982	-525.44696	261.09433	1350.63062	-544.16992	132.04417	1034.07361	-519.04028	357.52399	1037.35803	-733.65637	258.26892	1055.45740	-618.39343	82.15544	832.29578	-528.56207	143.60585	810.45184	-618.54150	97.73907	721.77155	-656.80225	122.52035	604.33105	-630.54803	229.34702	562.73639	-686.03381	123.96943	540.07227	-607.09485	169.69795	524.43884	-695.83966	116.88347	489.35016	-687.25525	147.69110	212.75902	-609.41632	88.54969	164.61295	-561.75342	68.65709	162.47734	-483.82663	112.63828	158.71053	-530.67010	163.56017	165.31374	-638.10583	224.50812	220.51218	-595.78772	200.09447	171.49271	-721.58966	213.98308	170.55415	-606.01288	438.82562	852.46997	-524.96857	384.74023	814.67523	-630.58575	423.98352	739.84869	-648.63293	402.38394	606.51202	-635.51172	292.60419	570.66943	-664.44055	404.02069	560.01221	-605.90649	348.95108	536.36841	-719.02887	405.65411	497.48465	-678.17926	399.35056	213.99854	-582.46838	449.78671	164.79788	-543.37744	460.07703	157.26112	-479.97763	409.87140	165.87360	-523.94409	369.42703	177.60001	-642.87415	308.60165	209.42406	-593.89398	328.57333	170.03232	-732.12756	327.59872	161.81209	-443.50592	448.70062	147.18794	-450.45023	74.96954	143.80914	-806.33508	82.53484	141.47124	-799.64917	456.51230	145.06422	
74	1.460	-563.77722	264.76044	1836.73511	-619.85516	84.57813	1541.81970	-621.74182	441.62164	1530.45190	-525.18579	260.96466	1350.20349	-544.94153	132.03812	1034.16040	-519.98914	357.51474	1037.48877	-734.52032	258.24030	1055.67664	-619.21265	82.12513	832.39813	-529.28485	143.43336	810.58789	-619.20068	97.77479	721.75134	-657.43701	122.49075	604.37964	-630.81580	229.20967	562.77295	-686.63434	124.00949	540.09314	-607.48590	169.61064	524.53687	-696.21442	116.89433	489.38254	-687.32166	147.73154	212.69312	-609.45612	88.47886	164.57347	-561.76154	68.56510	162.49840	-483.85001	112.64844	158.82010	-530.68182	163.52513	165.36832	-638.10486	224.35745	220.62146	-595.87708	199.88234	171.57253	-721.53729	213.97450	170.54694	-606.85120	438.78659	852.57428	-525.55548	385.07965	814.99030	-631.10107	423.95200	739.94861	-648.80933	402.23615	606.52936	-635.27594	292.64697	570.59399	-664.50769	403.83145	560.12183	-605.69922	348.97928	536.49927	-718.95404	405.50702	497.46173	-678.13281	399.26675	213.96703	-582.43488	449.81509	164.82092	-543.37811	460.12228	157.24039	-479.98209	409.89047	165.93042	-523.96204	369.44650	177.59906	-642.71130	308.59961	209.41652	-593.87421	328.62750	170.10434	-732.13855	327.64752	161.84746	-443.49380	448.72995	147.17177	-450.45792	74.96465	143.80312	-806.35901	82.52052	141.46971	-799.61823	456.54922	145.06725	
75	1.480	-554.99615	264.44308	1836.08008	-618.37415	84.47639	1541.86914	-620.25354	441.51688	1530.61499	-524.92120	260.83884	1349.64160	-545.84735	132.05348	1034.24866	-521.05774	357.54364	1037.66602	-735.46265	258.14432	1055.93298	-620.14337	82.08838	832.54791	-530.07739	143.28505	810.80939	-619.94312	97.82505	721.75220	-658.13129	122.47215	604.40656	-631.16815	229.11865	562.80890	-687.22449	124.03969	540.10809	-607.90259	169.52054	524.56720	-696.62341	116.97346	489.32318	-687.38965	147.75105	212.63651	-609.52167	88.38744	164.51457	-561.76605	68.47131	162.55695	-483.88544	112.66637	158.96365	-530.69629	163.48296	165.44731	-638.10577	224.15985	220.74638	-595.88153	199.79060	171.86438	-721.49103	213.95828	170.55087	-607.84412	438.83133	852.75775	-526.28784	385.50864	815.33746	-631.78894	423.93872	740.11279	-649.00323	402.05621	606.58240	-635.03265	292.67438	570.58167	-664.57678	403.56995	560.26050	-605.41772	349.05145	536.71210	-718.87628	405.27954	497.43414	-678.06934	399.32724	214.06093	-582.44263	449.84280	164.83589	-543.38837	460.16431	157.23267	-480.02005	409.96268	165.98051	-523.98297	369.46631	177.58742	-642.63751	308.73203	209.32130	-593.84338	328.64664	170.14490	-732.15100	327.70493	161.88310	-443.50778	448.73627	147.17700	-450.47079	74.95118	143.79219	-806.36328	82.47543	141.47476	-799.58691	456.56223	145.04932	
76	1.500	-545.48328	264.05240	1835.18323	-616.75049	84.40262	1541.89941	-618.56665	441.39359	1530.77771	-524.63208	260.71045	1349.01282	-546.94464	132.07353	1034.34473	-522.26117	357.58939	1037.82153	-736.52997	258.00818	1056.25671	-621.22424	82.04024	832.71045	-531.00012	143.14374	811.03577	-620.82953	97.82889	721.81494	-658.83124	122.49507	604.41412	-631.52545	229.09528	562.84375	-687.75909	124.12326	540.09290	-608.29266	169.44653	524.56171	-697.11182	117.10693	489.22540	-687.48395	147.72209	212.58786	-609.58539	88.29218	164.44963	-561.78992	68.40140	162.62096	-483.94235	112.67295	159.11229	-530.70630	163.43681	165.55772	-638.14844	223.94060	220.88531	-595.82104	199.81392	172.30869	-721.45447	213.91901	170.55019	-608.98529	438.96503	853.00580	-527.20001	385.98178	815.70709	-632.67206	423.91068	740.31024	-649.23230	401.80856	606.65833	-634.76709	292.65421	570.65021	-664.62677	403.25333	560.41620	-605.07019	349.15283	536.96429	-718.78680	404.96231	497.43338	-677.94995	399.57074	214.32767	-582.48517	449.87024	164.81668	-543.41400	460.18579	157.21883	-480.07040	410.05453	166.01714	-524.00299	369.49420	177.57590	-642.56689	308.86252	209.25366	-593.81714	328.59909	170.14163	-732.17987	327.74344	161.90034	-443.54379	448.72714	147.18439	-450.47699	74.93227	143.77730	-806.34253	82.42426	141.49089	-799.59271	456.53436	145.00450	
